<?xml version="1.0" standalone="no"?>
<!DOCTYPE svg PUBLIC "-//W3C//DTD SVG 20010904//EN"
 "http://www.w3.org/TR/2001/REC-SVG-20010904/DTD/svg10.dtd">
<svg version="1.0" xmlns="http://www.w3.org/2000/svg"
 viewBox="0 0 2600.000000 2600.000000"
 preserveAspectRatio="xMidYMid meet">
<metadata>
Created by potrace 1.15, written by Peter Selinger 2001-2017
</metadata>
<g transform="translate(0.000000,2600.000000) scale(0.100000,-0.100000)"
fill="#000000" stroke="none">
<path d="M6155 15959 c-380 -26 -747 -177 -1050 -431 -376 -314 -615 -789
-643 -1276 -27 -462 91 -865 360 -1228 248 -333 603 -572 1011 -679 283 -74
641 -74 924 0 509 134 928 468 1172 936 90 173 156 380 186 580 29 203 16 506
-31 694 -91 367 -299 713 -572 951 -379 330 -854 488 -1357 453z"/>
<path d="M12995 15960 c-804 -55 -1491 -653 -1661 -1445 -158 -741 147 -1497
775 -1917 238 -159 483 -252 771 -294 155 -22 460 -15 604 15 383 79 703 254
971 533 134 139 224 263 309 428 140 274 206 544 206 845 0 497 -194 960 -548
1311 -376 372 -889 560 -1427 524z"/>
<path d="M19824 15959 c-569 -41 -1111 -370 -1413 -857 -292 -471 -360 -1039
-186 -1560 183 -546 618 -981 1160 -1160 219 -73 316 -87 585 -87 208 0 248 3
350 24 387 80 727 268 992 550 460 489 614 1192 402 1838 -202 619 -736 1091
-1382 1223 -80 16 -369 44 -392 38 -3 0 -55 -4 -116 -9z"/>
<path d="M2810 14824 c-121 -21 -155 -30 -225 -63 -196 -93 -333 -255 -386
-458 -42 -164 -19 -602 52 -963 168 -857 603 -1635 1249 -2234 227 -210 536
-434 803 -581 l127 -70 2 -1280 3 -1280 25 -50 c35 -73 114 -147 185 -176 l60
-24 1590 0 1590 0 58 23 c71 29 153 107 188 177 l24 50 3 1280 2 1280 108 59
c547 300 1033 731 1384 1228 l61 86 59 -83 c351 -493 812 -906 1348 -1209
l135 -76 5 -1273 5 -1272 29 -62 c35 -76 104 -144 184 -181 l57 -27 1569 -3
c1747 -3 1640 -7 1745 66 30 20 69 59 88 85 67 98 63 20 63 1409 l0 1258 60
30 c141 71 397 234 555 353 331 250 704 638 900 935 15 23 31 42 35 42 3 0 43
-51 87 -112 45 -62 118 -158 164 -213 123 -148 425 -446 577 -567 200 -159
489 -350 663 -438 l59 -30 0 -1250 c0 -861 3 -1265 11 -1300 22 -104 125 -215
234 -252 33 -11 325 -13 1630 -13 l1590 0 60 28 c65 31 124 81 161 140 56 86
54 46 54 1398 l0 1247 88 47 c532 288 1014 711 1377 1210 390 537 643 1154
739 1807 30 202 50 500 43 633 -10 186 -77 338 -206 465 -87 85 -158 131 -260
166 -339 118 -710 -37 -866 -361 -48 -99 -61 -173 -74 -410 -17 -316 -66 -562
-163 -825 -321 -866 -1052 -1507 -1953 -1714 -504 -115 -1067 -76 -1557 110
-231 87 -541 264 -732 418 -527 424 -873 1015 -985 1676 -22 130 -28 197 -41
425 -7 127 -14 177 -34 241 -67 210 -251 387 -471 452 -113 34 -277 34 -390 0
-182 -54 -344 -187 -424 -349 -60 -121 -71 -171 -81 -379 -22 -437 -98 -753
-265 -1105 -438 -924 -1346 -1519 -2370 -1552 -1208 -38 -2296 730 -2669 1886
-76 233 -112 444 -126 728 -7 138 -17 226 -30 278 -35 137 -119 268 -231 362
-67 55 -214 127 -294 144 -84 18 -246 15 -325 -5 -196 -51 -365 -190 -454
-370 -52 -107 -67 -179 -76 -383 -5 -100 -14 -219 -20 -265 -66 -496 -250
-937 -558 -1338 -84 -109 -352 -376 -462 -461 -390 -301 -809 -478 -1310 -556
-87 -13 -175 -18 -365 -18 -190 0 -278 5 -365 18 -500 77 -922 256 -1310 555
-110 85 -377 352 -462 462 -191 249 -331 504 -429 788 -90 261 -133 494 -149
808 -11 219 -23 281 -76 390 -89 181 -266 325 -454 368 -71 16 -200 27 -240
20z"/>
</g>
</svg>
