<?xml version="1.0" standalone="no"?>
<!DOCTYPE svg PUBLIC "-//W3C//DTD SVG 20010904//EN"
 "http://www.w3.org/TR/2001/REC-SVG-20010904/DTD/svg10.dtd">
<svg version="1.0" xmlns="http://www.w3.org/2000/svg"
 viewBox="0 0 2600.000000 2600.000000"
 preserveAspectRatio="xMidYMid meet">
<metadata>
Created by potrace 1.13, written by Peter Selinger 2001-2015
</metadata>
<g transform="translate(0.000000,2600.000000) scale(0.100000,-0.100000)"
fill="#000000" stroke="none">
<path d="M7355 21161 c-134 -48 -352 -178 -463 -277 -68 -60 -179 -203 -247
-319 -85 -145 -125 -251 -219 -589 l-36 -129 -108 -146 c-149 -201 -166 -226
-279 -396 -760 -1143 -1253 -2486 -1412 -3845 -71 -605 -80 -1303 -26 -1890
110 -1173 432 -2291 965 -3345 652 -1289 1577 -2397 2715 -3252 1063 -799
2293 -1345 3575 -1587 257 -49 321 -56 387 -42 153 31 263 161 263 310 0 62
-228 859 -261 912 -27 44 -104 113 -144 130 -19 8 -112 30 -207 50 -1274 266
-2390 759 -3373 1491 -318 237 -562 449 -860 747 -1154 1155 -1920 2639 -2239
4336 -198 1055 -214 2233 -46 3261 178 1083 536 2080 1089 3032 l85 148 179
91 c287 146 415 234 571 392 162 165 252 329 326 594 34 121 37 180 11 237
-22 48 -44 69 -94 90 -46 19 -89 18 -152 -4z"/>
<path d="M18755 21168 c-71 -25 -115 -93 -115 -179 0 -138 113 -438 224 -593
98 -138 256 -285 416 -388 41 -26 159 -91 261 -143 103 -53 193 -103 202 -113
32 -36 244 -417 351 -632 555 -1114 856 -2256 926 -3510 13 -236 13 -770 0
-1010 -62 -1157 -298 -2185 -727 -3170 -555 -1272 -1408 -2356 -2503 -3179
-976 -733 -2126 -1245 -3375 -1501 -82 -17 -171 -38 -198 -46 -65 -22 -137
-81 -169 -140 -25 -47 -226 -714 -253 -840 -14 -66 -7 -135 19 -197 21 -52 99
-132 153 -157 88 -41 129 -42 348 -5 1542 261 3010 971 4255 2061 164 143 658
636 796 794 706 806 1244 1662 1641 2610 828 1978 947 4141 338 6160 -288 953
-772 1912 -1365 2705 l-112 150 -45 160 c-94 338 -151 478 -259 637 -142 209
-275 327 -507 448 -154 81 -234 102 -302 78z"/>
<path d="M13930 19373 c-14 -2 -104 -22 -200 -43 -617 -138 -1465 -252 -2330
-315 -124 -9 -246 -23 -271 -31 -59 -19 -123 -82 -143 -142 -13 -36 -16 -94
-16 -287 0 -272 6 -308 66 -369 71 -74 49 -70 554 -77 379 -5 468 -9 535 -23
98 -21 136 -42 146 -80 12 -45 28 -354 39 -769 13 -504 13 -6676 0 -6972 -25
-559 -84 -732 -274 -808 -121 -49 -236 -66 -632 -96 -152 -12 -264 -25 -285
-34 -49 -20 -97 -64 -122 -111 -21 -39 -22 -52 -22 -316 0 -264 1 -277 22
-316 27 -51 80 -98 130 -115 31 -12 384 -14 2063 -14 1848 0 2028 1 2061 16
61 28 106 76 129 137 20 52 21 72 18 311 -3 242 -4 258 -25 297 -26 48 -73 91
-123 112 -23 9 -113 19 -265 28 -560 33 -639 49 -740 150 -96 96 -135 275
-155 724 -15 320 -7 6204 9 6710 27 864 47 1347 77 1850 24 416 23 433 -39
506 -44 52 -139 87 -207 77z"/>
<path d="M2744 16910 c-7 -7 -6 -39 3 -98 19 -129 29 -370 22 -517 -10 -169
-28 -271 -99 -550 -71 -280 -85 -376 -77 -538 22 -487 299 -1037 767 -1521
187 -193 313 -302 373 -322 102 -34 217 0 287 83 36 45 70 148 139 423 95 380
130 621 138 948 8 322 -9 472 -78 697 -129 420 -497 861 -993 1186 -141 93
-271 162 -368 195 -79 26 -99 29 -114 14z"/>
<path d="M23400 16897 c-97 -35 -256 -119 -388 -207 -477 -317 -831 -740 -966
-1152 -113 -345 -123 -758 -31 -1288 46 -260 152 -677 194 -758 63 -122 215
-175 336 -118 58 27 249 198 382 342 332 359 538 690 653 1050 62 194 84 323
84 494 0 165 -10 226 -85 515 -80 312 -92 395 -92 650 0 155 5 258 17 347 9
70 14 132 11 138 -10 16 -44 12 -115 -13z"/>
<path d="M2597 13308 c-14 -12 -11 -24 37 -133 100 -225 162 -430 190 -633 9
-62 20 -221 26 -355 5 -133 14 -275 20 -316 68 -477 432 -967 1001 -1346 238
-159 567 -328 661 -341 114 -16 239 66 272 177 28 92 18 474 -20 809 -58 507
-188 922 -379 1210 -78 116 -230 281 -349 376 -246 198 -591 376 -930 479
-239 72 -485 106 -529 73z"/>
<path d="M23465 13313 c-11 -2 -67 -13 -125 -24 -216 -42 -577 -179 -791 -299
-552 -311 -831 -680 -985 -1305 -78 -316 -113 -607 -121 -1005 -6 -280 -5
-286 17 -337 45 -105 161 -173 269 -159 30 3 116 41 246 105 343 172 603 352
838 580 207 202 343 383 447 596 97 198 126 324 140 605 22 446 37 564 95 766
33 111 87 256 136 363 43 93 46 106 23 115 -17 7 -157 6 -189 -1z"/>
<path d="M4050 9959 c-166 -9 -290 -37 -290 -65 0 -8 32 -51 71 -97 158 -183
257 -356 345 -607 82 -235 150 -349 288 -482 261 -251 685 -430 1158 -490 90
-11 101 -10 144 8 69 28 107 80 112 152 3 48 -4 79 -46 202 -192 560 -438 942
-731 1140 -252 169 -648 259 -1051 239z"/>
<path d="M21830 9949 c-274 -35 -543 -132 -710 -255 -286 -210 -538 -624 -715
-1174 -47 -148 -40 -199 39 -268 49 -43 90 -48 225 -28 498 70 904 253 1162
522 116 122 165 206 241 418 109 305 205 473 371 652 31 34 57 67 57 73 0 19
-56 40 -145 56 -96 16 -409 19 -525 4z"/>
<path d="M6000 7916 c-128 -7 -224 -17 -237 -24 -36 -20 -63 -62 -63 -100 0
-27 26 -78 111 -221 138 -230 185 -294 291 -397 125 -122 277 -216 404 -249
186 -48 477 -42 592 12 106 50 172 183 151 301 -23 122 -180 350 -326 473
-142 120 -374 199 -623 212 -47 2 -182 -1 -300 -7z"/>
<path d="M19895 7920 c-172 -15 -366 -77 -490 -155 -123 -78 -276 -259 -357
-421 -38 -76 -43 -96 -43 -153 0 -119 77 -230 184 -265 126 -42 379 -44 538
-6 189 45 407 199 547 384 48 64 232 360 273 439 29 55 -7 136 -70 155 -17 6
-111 13 -207 17 -96 3 -200 7 -230 9 -30 2 -95 1 -145 -4z"/>
<path d="M7495 6669 c-105 -14 -446 -78 -479 -91 -62 -25 -85 -117 -43 -174
76 -105 272 -340 335 -402 172 -168 406 -283 607 -298 148 -11 405 31 506 82
121 60 179 212 134 345 -30 87 -204 288 -328 378 -184 134 -460 194 -732 160z"/>
<path d="M18428 6664 c-122 -18 -260 -67 -348 -122 -87 -54 -255 -216 -322
-312 -55 -78 -83 -162 -73 -223 15 -91 67 -172 140 -217 46 -28 213 -68 345
-81 187 -19 320 5 492 91 180 89 285 184 497 445 140 172 146 182 146 225 0
46 -25 93 -55 105 -27 11 -412 84 -500 95 -109 13 -213 11 -322 -6z"/>
<path d="M9240 5795 c-100 -21 -191 -56 -358 -138 -169 -83 -180 -90 -193
-126 -17 -44 5 -82 79 -133 37 -26 103 -73 147 -105 44 -32 112 -75 151 -95
156 -82 371 -118 504 -84 127 33 246 86 327 145 106 77 118 235 26 327 -84 85
-274 188 -392 213 -68 14 -210 12 -291 -4z"/>
<path d="M16694 5791 c-127 -34 -323 -151 -377 -223 -70 -94 -59 -218 25 -294
54 -48 224 -129 329 -155 148 -38 336 -11 504 72 81 40 346 222 378 260 21 25
22 77 3 104 -20 29 -356 190 -461 221 -124 36 -299 43 -401 15z"/>
<path d="M10702 5450 c-56 -12 -152 -64 -207 -112 -46 -41 -195 -231 -195
-249 0 -5 10 -20 23 -32 32 -33 246 -62 341 -47 159 25 272 103 342 235 22 42
26 58 20 89 -9 49 -51 91 -102 105 -58 15 -173 21 -222 11z"/>
<path d="M15385 5450 c-104 -17 -145 -51 -152 -127 -5 -43 -1 -54 37 -110 82
-123 175 -181 325 -203 57 -8 94 -7 198 9 70 11 134 25 142 31 30 25 16 60
-61 161 -85 111 -150 168 -239 210 -67 32 -166 43 -250 29z"/>
</g>
</svg>
