<?xml version="1.0" standalone="no"?>
<!DOCTYPE svg PUBLIC "-//W3C//DTD SVG 20010904//EN"
 "http://www.w3.org/TR/2001/REC-SVG-20010904/DTD/svg10.dtd">
<svg version="1.0" xmlns="http://www.w3.org/2000/svg"
 viewBox="0 0 2600.000000 2600.000000"
 preserveAspectRatio="xMidYMid meet">
<metadata>
Created by potrace 1.13, written by Peter Selinger 2001-2015
</metadata>
<g transform="translate(0.000000,2600.000000) scale(0.100000,-0.100000)"
fill="#000000" stroke="none">
<path d="M14535 22224 c-421 -30 -602 -49 -925 -100 -690 -109 -1347 -276
-2725 -694 -1638 -497 -2326 -657 -3205 -747 -250 -25 -947 -25 -1170 0 -665
75 -1202 233 -1785 524 -98 50 -143 66 -185 70 -122 11 -232 -52 -287 -165
l-28 -57 0 -3365 0 -3365 26 -56 c42 -89 85 -122 284 -220 628 -307 1240 -480
1975 -556 209 -21 880 -25 1100 -5 959 85 1651 240 3320 744 788 237 890 267
1190 352 953 267 1663 402 2350 447 231 15 785 6 985 -16 458 -50 926 -165
1340 -329 66 -26 218 -95 337 -153 188 -91 225 -106 280 -110 117 -9 232 58
281 165 l22 47 3 3360 c2 3798 11 3428 -81 3519 -41 40 -88 69 -218 133 -621
307 -1249 485 -1969 558 -145 15 -786 28 -915 19z m760 -585 c313 -23 655 -80
947 -159 273 -75 640 -210 839 -311 l59 -29 0 -2989 0 -2990 -122 50 c-1078
439 -2260 520 -3688 253 -640 -120 -1171 -261 -2532 -673 -1133 -343 -1765
-507 -2364 -615 -895 -162 -1708 -172 -2414 -30 -374 75 -785 210 -1122 368
l-98 46 0 2990 0 2990 47 -19 c27 -10 93 -37 148 -59 229 -90 551 -187 820
-246 1036 -228 2127 -169 3568 190 454 113 732 192 1617 459 906 273 1263 376
1655 474 1049 263 1866 356 2640 300z"/>
<path d="M14475 21324 c-22 -2 -103 -8 -180 -14 -507 -39 -1124 -151 -1805
-326 -393 -101 -716 -194 -1625 -469 -899 -271 -1450 -422 -1910 -524 -1091
-240 -1998 -291 -2809 -155 -82 14 -149 24 -151 22 -1 -2 -12 -32 -24 -68 -77
-218 -222 -391 -406 -480 -111 -54 -181 -71 -322 -77 l-123 -6 0 -1821 0
-1821 38 -24 c375 -241 690 -632 810 -1006 l29 -90 129 -22 c341 -58 478 -67
959 -67 470 -1 567 5 945 55 758 99 1432 265 2948 723 1359 411 2000 575 2667
680 481 77 768 100 1215 100 384 0 571 -13 880 -60 232 -36 207 -40 234 36 46
131 105 228 195 323 69 73 126 115 216 160 99 50 172 67 313 74 l122 6 0 1821
0 1822 -72 50 c-378 263 -655 614 -769 975 l-30 95 -172 27 c-317 51 -425 59
-857 62 -223 1 -423 1 -445 -1z m-3250 -1758 c125 -33 294 -114 406 -197 351
-260 595 -715 659 -1229 13 -109 13 -401 0 -510 -53 -424 -229 -813 -490
-1080 -332 -341 -777 -462 -1190 -324 -473 158 -843 628 -965 1227 -135 662
50 1355 474 1777 200 199 400 309 646 355 122 22 332 14 460 -19z"/>
<path d="M15095 14056 c-592 -136 -4078 -975 -4125 -993 -150 -59 -273 -170
-340 -306 -69 -140 -71 -165 -68 -721 l3 -491 28 -80 c73 -208 249 -367 463
-419 38 -9 860 -108 1827 -220 967 -113 1760 -206 1761 -208 2 -1 -10 -194
-25 -428 -26 -387 -30 -426 -48 -440 -10 -8 -281 -262 -602 -565 -320 -302
-589 -550 -598 -549 -9 0 -502 105 -1096 234 l-1080 235 -790 785 c-1745 1734
-1669 1661 -1765 1708 -150 74 -299 97 -446 69 -152 -29 -201 -57 -594 -341
-201 -146 -392 -291 -425 -323 -185 -178 -237 -448 -130 -680 13 -29 553 -821
1200 -1760 1262 -1832 1237 -1799 1376 -1876 39 -21 937 -344 2284 -820 1221
-432 2247 -793 2280 -803 44 -14 93 -19 180 -19 136 0 223 21 330 79 33 19
1050 706 2260 1529 1551 1054 2222 1516 2275 1565 81 76 128 144 169 250 l26
67 3 2125 c3 2359 7 2197 -63 2338 -71 141 -219 265 -376 315 -46 15 -878 190
-1849 388 -1915 392 -1898 389 -2045 355z"/>
<path d="M20465 13570 c-95 -25 -138 -44 -217 -97 -88 -58 -171 -150 -214
-238 -69 -143 -64 59 -64 -2540 0 -2596 -4 -2407 65 -2545 80 -158 221 -271
415 -332 l75 -23 665 0 665 0 95 33 c160 56 267 134 348 256 60 90 89 172 103
291 7 60 9 852 7 2385 -3 2180 -4 2298 -22 2355 -50 167 -180 326 -327 398
-158 78 -151 77 -878 76 -597 0 -651 -2 -716 -19z"/>
</g>
</svg>
