<?xml version="1.0" standalone="no"?>
<!DOCTYPE svg PUBLIC "-//W3C//DTD SVG 20010904//EN"
 "http://www.w3.org/TR/2001/REC-SVG-20010904/DTD/svg10.dtd">
<svg version="1.0" xmlns="http://www.w3.org/2000/svg"
 viewBox="0 0 2600.000000 2600.000000"
 preserveAspectRatio="xMidYMid meet">
<metadata>
Created by potrace 1.15, written by Peter Selinger 2001-2017
</metadata>
<g transform="translate(0.000000,2600.000000) scale(0.100000,-0.100000)"
fill="#000000" stroke="none">
<path d="M14975 22770 c-679 -76 -1283 -418 -1685 -955 -232 -310 -381 -658
-451 -1050 -30 -170 -37 -512 -15 -685 38 -288 111 -532 230 -775 158 -321
410 -634 674 -835 l71 -54 -87 -91 c-167 -176 -406 -619 -607 -1124 -296 -745
-466 -1507 -525 -2356 -14 -192 -14 -776 0 -970 22 -313 76 -760 116 -952 69
-333 250 -581 532 -726 140 -72 311 -117 447 -117 352 0 669 167 859 453 64
97 96 165 133 286 24 79 27 101 27 266 1 152 -4 205 -26 340 -55 321 -78 604
-78 955 0 272 10 443 41 690 66 528 193 1008 391 1475 70 165 218 455 235 462
11 4 495 -239 537 -270 16 -12 15 -18 -20 -77 -52 -88 -154 -304 -204 -430
-189 -475 -302 -975 -341 -1499 -16 -229 -6 -724 20 -936 29 -242 44 -335 53
-335 19 0 383 176 560 270 408 217 786 445 1236 743 268 179 272 182 267 212
-3 16 -30 244 -60 505 -97 831 -329 2709 -405 3275 l-20 149 88 91 c349 358
569 814 649 1342 19 132 22 454 4 598 -133 1075 -929 1916 -1991 2101 -118 21
-186 27 -360 29 -118 2 -251 0 -295 -5z"/>
<path d="M7104 20340 c-454 -48 -867 -209 -1230 -481 -126 -94 -368 -336 -460
-459 -245 -329 -389 -659 -461 -1060 -24 -132 -27 -168 -27 -405 0 -237 3
-273 27 -405 61 -339 177 -634 355 -905 108 -164 185 -259 324 -399 l118 -118
-60 -72 c-53 -62 -3143 -4364 -3273 -4555 -136 -202 -195 -419 -176 -657 8
-108 11 -127 40 -224 46 -154 158 -332 276 -441 180 -164 397 -255 640 -266
193 -9 357 26 520 112 153 81 257 174 380 343 72 99 92 120 79 86 -10 -25
-279 -1010 -395 -1444 -661 -2477 -1005 -4074 -1028 -4775 -9 -288 15 -387
120 -481 144 -131 337 -157 511 -70 461 229 1285 1341 2393 3226 87 148 158
268 159 267 1 -1 7 -99 14 -217 103 -1974 325 -3199 674 -3724 60 -90 148
-179 216 -218 81 -47 150 -61 279 -55 157 6 198 22 282 107 116 117 217 352
308 717 259 1035 447 3092 576 6313 31 778 70 2011 81 2570 3 173 7 321 10
328 2 7 74 -48 176 -135 486 -417 1002 -796 1488 -1095 1007 -619 1997 -945
2805 -925 169 4 200 7 279 31 104 31 229 92 301 145 28 21 55 40 62 44 7 4 31
-20 63 -63 65 -88 181 -196 279 -260 165 -109 412 -172 604 -155 241 21 757
154 1199 309 981 345 2150 982 3328 1813 l185 131 3 -33 c2 -18 -11 -334 -27
-701 -171 -3752 -212 -6253 -126 -7686 49 -807 131 -1206 271 -1312 163 -125
355 -136 522 -29 324 206 750 1082 1262 2599 122 361 289 885 397 1241 32 106
61 187 64 180 4 -7 25 -77 48 -157 313 -1077 659 -2028 957 -2631 298 -602
551 -921 809 -1019 86 -33 242 -34 341 -3 179 57 263 169 313 421 55 272 57
752 5 1372 -147 1791 -788 5250 -1871 10110 -102 459 -188 846 -190 860 -4 21
13 43 107 135 411 404 655 903 721 1474 19 172 7 516 -25 682 -73 387 -214
712 -438 1014 -473 636 -1231 1001 -2018 972 -370 -14 -684 -94 -1005 -256
-243 -123 -433 -260 -620 -446 -692 -690 -899 -1721 -529 -2630 180 -440 496
-822 909 -1097 61 -40 150 -93 198 -118 84 -43 88 -46 82 -74 -3 -16 -5 -64
-5 -107 l0 -78 -72 -50 c-40 -27 -129 -97 -198 -156 -518 -443 -1299 -1016
-1945 -1427 -551 -350 -1135 -669 -1599 -873 -110 -48 -161 -76 -166 -90 -4
-11 -17 -70 -28 -131 -93 -485 -399 -897 -842 -1132 -146 -77 -390 -155 -546
-173 -135 -16 -343 -16 -434 0 -344 59 -640 196 -863 401 -315 287 -480 606
-547 1056 l-12 80 -121 48 c-694 275 -1531 848 -2430 1664 -367 333 -1072
1058 -1045 1075 7 4 63 37 123 72 555 329 963 886 1109 1515 48 204 60 320 60
555 0 160 -4 251 -17 335 -83 539 -311 995 -686 1371 -375 374 -826 601 -1361
684 -122 19 -457 28 -576 15z"/>
<path d="M17570 11213 c-322 -180 -817 -424 -1175 -578 -654 -283 -1443 -518
-1895 -566 -342 -36 -767 88 -1051 307 l-56 43 -89 -29 c-48 -15 -90 -32 -91
-37 -11 -38 -146 -1342 -188 -1823 -75 -862 -99 -1307 -99 -1860 -1 -472 6
-602 40 -770 34 -165 69 -227 165 -291 145 -97 304 -104 464 -21 141 74 352
314 551 629 363 571 806 1485 1318 2718 90 215 173 417 186 449 l24 59 77
-384 c460 -2296 938 -3488 1453 -3625 85 -23 222 -18 313 11 96 30 150 69 199
142 175 263 244 856 231 1983 -11 895 -70 1911 -192 3312 -19 218 -35 399 -35
402 0 12 -18 3 -150 -71z"/>
</g>
</svg>
