<?xml version="1.0" standalone="no"?>
<!DOCTYPE svg PUBLIC "-//W3C//DTD SVG 20010904//EN"
 "http://www.w3.org/TR/2001/REC-SVG-20010904/DTD/svg10.dtd">
<svg version="1.0" xmlns="http://www.w3.org/2000/svg"
 viewBox="0 0 2600.000000 2600.000000"
 preserveAspectRatio="xMidYMid meet">
<metadata>
Created by potrace 1.13, written by Peter Selinger 2001-2015
</metadata>
<g transform="translate(0.000000,2600.000000) scale(0.100000,-0.100000)"
fill="#000000" stroke="none">
<path d="M13010 21434 c-203 -53 -363 -220 -406 -423 -21 -102 -21 -7153 1
-7256 20 -95 73 -199 134 -263 217 -226 553 -239 776 -31 77 72 118 135 153
231 l27 73 3 2906 2 2905 73 -8 c1068 -121 2056 -521 2902 -1176 196 -152 306
-251 530 -476 383 -384 677 -763 940 -1211 171 -292 282 -524 410 -860 336
-882 447 -1873 314 -2800 -294 -2049 -1672 -3794 -3599 -4558 -1000 -397
-2112 -506 -3169 -311 -2072 381 -3775 1864 -4446 3869 -547 1631 -325 3424
604 4900 118 188 338 494 360 503 4 1 166 -297 361 -663 194 -367 356 -662
360 -658 18 20 2710 4336 2707 4339 -5 5 -5110 184 -5115 180 -1 -2 170 -329
381 -727 l385 -723 -124 -131 c-338 -358 -710 -852 -966 -1280 -619 -1036
-970 -2149 -1070 -3390 -16 -205 -16 -870 0 -1070 57 -687 166 -1232 369
-1850 638 -1943 2068 -3575 3918 -4471 1694 -820 3620 -985 5430 -464 1644
473 3092 1501 4095 2906 687 963 1142 2076 1325 3244 95 610 117 1287 59 1864
-159 1603 -826 3112 -1922 4351 -149 168 -523 540 -678 675 -993 861 -2219
1460 -3514 1715 -413 81 -687 112 -1290 145 -230 13 -252 12 -320 -6z"/>
</g>
</svg>
